<?xml version="1.0" encoding="utf-8"?>
<!-- Generator: Adobe Illustrator 26.0.3, SVG Export Plug-In . SVG Version: 6.00 Build 0)  -->
<svg version="1.1" id="Layer_1" xmlns="http://www.w3.org/2000/svg" xmlns:xlink="http://www.w3.org/1999/xlink" x="0px" y="0px"
	 viewBox="0 0 360 360" style="enable-background:new 0 0 360 360;" xml:space="preserve">
<style type="text/css">
	.st0{fill:none;stroke:#8A5DA6;stroke-width:3.7744;stroke-linecap:round;stroke-linejoin:round;stroke-miterlimit:10;}
	.st1{fill:none;stroke:#8A5DA6;stroke-width:3.0033;stroke-linecap:round;stroke-linejoin:round;stroke-miterlimit:10;}
	.st2{fill:#6C3E88;}
</style>
<path class="st0" d="M182.4,186.29c0.17,0.19,0.34,0.38,0.51,0.57c16.99,18.89,28.9,23.34,43.35,13.97
	c14.45-9.37,5.56-29.06,5.56-29.06l-33.5-68.43c0,0-4.6-10-15.74-10s-16.01,10-16.01,10s-29.22,61.45-33.66,69.86
	s-3.33,28.1,12.07,31.6C159.32,208.06,167.89,202.52,182.4,186.29"/>
<line class="st0" x1="182.92" y1="186.86" x2="182.69" y2="176.55"/>
<g>
	<path class="st1" d="M163.58,129.95h12.17c0.85,0,1.54,0.69,1.54,1.54v22.29h-15.25v-22.29
		C162.04,130.64,162.73,129.95,163.58,129.95z"/>
	<path class="st1" d="M176.72,153.78h29.62c0.96,0,1.74-1.12,1.74-2.51l0,0c0-1.38-0.78-2.51-1.74-2.51h-28.65"/>
	<line class="st1" x1="177.29" y1="135.1" x2="162.04" y2="135.1"/>
	<path class="st1" d="M184.25,167.37h6.67v8.44h-8.24h-8.73v-11.77c0,0-4.29,0.57-4.29-1.67c0-2.53,0-8.58,0-8.58"/>
	<path class="st1" d="M204.56,153.78c0,0,0.72,13.59-15.4,13.59"/>
</g>
<g>
	<path class="st2" d="M128.83,248.06c-1.45,0-2.75-0.26-3.9-0.78s-2.06-1.29-2.73-2.31c-0.67-1.02-1-2.28-1-3.77
		c0-1.29,0.24-2.35,0.71-3.19s1.12-1.52,1.95-2.02c0.82-0.5,1.75-0.89,2.79-1.15c1.03-0.26,2.11-0.45,3.22-0.57
		c1.34-0.14,2.42-0.26,3.25-0.38c0.83-0.11,1.44-0.29,1.82-0.54c0.38-0.24,0.57-0.62,0.57-1.14v-0.09c0-1.12-0.33-1.99-1-2.6
		s-1.62-0.92-2.87-0.92c-1.32,0-2.36,0.29-3.13,0.86s-1.28,1.25-1.55,2.04l-5.02-0.71c0.4-1.39,1.05-2.55,1.96-3.48
		s2.02-1.64,3.34-2.11c1.32-0.47,2.77-0.71,4.37-0.71c1.1,0,2.19,0.13,3.28,0.39c1.09,0.26,2.08,0.68,2.99,1.27
		c0.9,0.59,1.63,1.39,2.18,2.4s0.82,2.27,0.82,3.79v15.27h-5.17v-3.13h-0.18c-0.33,0.63-0.79,1.23-1.37,1.77
		c-0.59,0.55-1.33,0.99-2.21,1.32C131.05,247.89,130.01,248.06,128.83,248.06z M130.22,244.11c1.08,0,2.01-0.22,2.81-0.65
		c0.79-0.43,1.4-1,1.83-1.71c0.43-0.71,0.65-1.49,0.65-2.33v-2.69c-0.17,0.14-0.45,0.27-0.85,0.39c-0.4,0.12-0.85,0.22-1.34,0.31
		c-0.5,0.09-0.99,0.17-1.47,0.24c-0.49,0.07-0.91,0.13-1.26,0.18c-0.8,0.11-1.52,0.29-2.15,0.54c-0.63,0.25-1.13,0.59-1.5,1.03
		c-0.37,0.44-0.55,1.01-0.55,1.7c0,0.99,0.36,1.74,1.08,2.24S129.1,244.11,130.22,244.11z"/>
	<path class="st2" d="M149,221.54c-0.85,0-1.58-0.29-2.2-0.85s-0.92-1.25-0.92-2.06c0-0.81,0.31-1.5,0.92-2.07s1.35-0.85,2.2-0.85
		c0.86,0,1.6,0.29,2.21,0.85c0.61,0.57,0.91,1.26,0.91,2.07c0,0.8-0.3,1.49-0.91,2.06C150.59,221.26,149.86,221.54,149,221.54z
		 M146.29,247.6v-22.81h5.38v22.81H146.29z"/>
	<path class="st2" d="M157.19,247.6v-22.81h5.21v3.8h0.24c0.42-1.32,1.13-2.33,2.15-3.05c1.02-0.72,2.18-1.08,3.48-1.08
		c0.3,0,0.63,0.01,1,0.04c0.37,0.02,0.68,0.06,0.93,0.11v4.95c-0.23-0.08-0.59-0.15-1.08-0.21c-0.49-0.06-0.96-0.1-1.42-0.1
		c-0.98,0-1.86,0.21-2.64,0.63c-0.78,0.42-1.39,1-1.83,1.75c-0.45,0.74-0.67,1.6-0.67,2.57v13.41H157.19z"/>
	<path class="st2" d="M173.78,256.15v-31.37h5.29v3.77h0.31c0.28-0.55,0.67-1.15,1.17-1.77s1.19-1.17,2.05-1.62
		c0.86-0.45,1.96-0.68,3.3-0.68c1.76,0,3.35,0.45,4.77,1.34c1.42,0.9,2.55,2.22,3.39,3.96c0.84,1.75,1.25,3.89,1.25,6.42
		c0,2.5-0.41,4.63-1.23,6.39c-0.82,1.75-1.94,3.09-3.36,4.01c-1.42,0.92-3.02,1.38-4.81,1.38c-1.31,0-2.39-0.22-3.25-0.65
		c-0.86-0.44-1.55-0.96-2.07-1.58c-0.52-0.62-0.92-1.21-1.21-1.76h-0.22v12.15H173.78z M179.06,236.19c0,1.48,0.21,2.77,0.63,3.88
		c0.42,1.11,1.03,1.97,1.83,2.59s1.77,0.93,2.9,0.93c1.19,0,2.18-0.32,2.99-0.96c0.8-0.64,1.41-1.51,1.82-2.63
		c0.41-1.11,0.62-2.38,0.62-3.81c0-1.42-0.2-2.67-0.61-3.77c-0.41-1.1-1.01-1.96-1.81-2.58c-0.8-0.62-1.8-0.94-3-0.94
		c-1.15,0-2.12,0.3-2.93,0.91c-0.8,0.6-1.41,1.45-1.82,2.54S179.06,234.71,179.06,236.19z"/>
	<path class="st2" d="M205.29,234.23v13.37h-5.38v-22.81h5.14v3.88h0.27c0.52-1.28,1.36-2.29,2.52-3.04
		c1.15-0.75,2.58-1.13,4.29-1.13c1.57,0,2.95,0.34,4.12,1.01c1.17,0.67,2.08,1.65,2.73,2.93s0.97,2.83,0.96,4.65v14.53h-5.38V233.9
		c0-1.53-0.39-2.72-1.18-3.58s-1.87-1.29-3.26-1.29c-0.94,0-1.78,0.21-2.5,0.62c-0.73,0.41-1.3,1-1.71,1.78
		C205.49,232.19,205.29,233.13,205.29,234.23z"/>
	<path class="st2" d="M225.41,256.15v-31.37h5.29v3.77h0.31c0.28-0.55,0.67-1.15,1.17-1.77s1.19-1.17,2.05-1.62
		c0.86-0.45,1.96-0.68,3.3-0.68c1.76,0,3.35,0.45,4.77,1.34c1.42,0.9,2.55,2.22,3.39,3.96c0.84,1.75,1.25,3.89,1.25,6.42
		c0,2.5-0.41,4.63-1.23,6.39c-0.82,1.75-1.94,3.09-3.36,4.01c-1.42,0.92-3.02,1.38-4.81,1.38c-1.31,0-2.39-0.22-3.25-0.65
		c-0.86-0.44-1.55-0.96-2.07-1.58c-0.52-0.62-0.92-1.21-1.21-1.76h-0.22v12.15H225.41z M230.68,236.19c0,1.48,0.21,2.77,0.63,3.88
		c0.42,1.11,1.03,1.97,1.83,2.59s1.77,0.93,2.9,0.93c1.19,0,2.18-0.32,2.99-0.96c0.8-0.64,1.41-1.51,1.82-2.63
		c0.41-1.11,0.62-2.38,0.62-3.81c0-1.42-0.2-2.67-0.61-3.77c-0.41-1.1-1.01-1.96-1.81-2.58c-0.8-0.62-1.8-0.94-3-0.94
		c-1.15,0-2.12,0.3-2.93,0.91c-0.8,0.6-1.41,1.45-1.82,2.54S230.68,234.71,230.68,236.19z"/>
</g>
</svg>
