<svg width="28" height="27" viewBox="0 0 28 27" fill="none" xmlns="http://www.w3.org/2000/svg">
<path d="M27.4865 12.3038L15.2403 0.495169C14.5556 -0.165056 13.4449 -0.165056 12.7597 0.495169L0.513516 12.3038C-0.171172 12.9646 -0.171172 14.035 0.513516 14.6958L12.7597 26.5044C13.4444 27.1652 14.5551 27.1652 15.2403 26.5044L27.4865 14.6958C28.1712 14.035 28.1712 12.9646 27.4865 12.3038ZM21.9641 12.9661L17.3589 17.0651C17.0789 17.3146 16.6245 17.1231 16.6245 16.755V13.9217H11.3745V17.2966C11.3745 17.5297 11.1787 17.7185 10.937 17.7185H9.18695C8.94523 17.7185 8.74945 17.5297 8.74945 17.2966V13.0779C8.74945 12.1461 9.53312 11.3905 10.4995 11.3905H16.6245V8.55708C16.6245 8.18953 17.0784 7.99758 17.3589 8.24701L21.9641 12.346C22.1517 12.5132 22.1517 12.799 21.9641 12.9661Z" fill="#F2F2F2"/>
</svg>
