<svg width="21" height="21" viewBox="0 0 21 21" fill="none" xmlns="http://www.w3.org/2000/svg">
<path d="M15.7885 2.89991C15.7885 3.4038 15.4809 3.88705 14.9334 4.24335C14.3858 4.59965 13.6432 4.79982 12.8689 4.79982C12.0946 4.79982 11.352 4.59965 10.8044 4.24335C10.2569 3.88705 9.94931 3.4038 9.94931 2.89991C9.94931 2.39602 10.2569 1.91277 10.8044 1.55647C11.352 1.20017 12.0946 1 12.8689 1C13.6432 1 14.3858 1.20017 14.9334 1.55647C15.4809 1.91277 15.7885 2.39602 15.7885 2.89991ZM11.7325 12.588L15.5228 15.0218C15.6682 15.1152 15.7818 15.2273 15.8564 15.351L17.8775 18.702C18.019 18.9365 18.0115 19.198 17.8567 19.429C17.7019 19.66 17.4124 19.8415 17.052 19.9336C16.6915 20.0257 16.2896 20.0208 15.9347 19.92C15.5797 19.8193 15.3008 19.6309 15.1593 19.3964L13.2514 16.2325L6.73483 12.048C6.57736 11.9469 6.45723 11.8239 6.38352 11.6882C6.3098 11.5526 6.28442 11.4077 6.3093 11.2647L6.83118 8.26289C5.57283 9.077 4.60206 10.2212 3.85829 11.7378C3.80268 11.8587 3.71061 11.9712 3.58746 12.0687C3.46431 12.1662 3.31255 12.2467 3.14103 12.3056C2.96951 12.3645 2.78168 12.4006 2.58851 12.4117C2.39534 12.4228 2.20069 12.4088 2.01595 12.3704C1.8312 12.332 1.66005 12.2701 1.5125 12.1882C1.36495 12.1063 1.24396 12.0061 1.15658 11.8934C1.0692 11.7808 1.01719 11.6579 1.00359 11.532C0.989995 11.4061 1.01508 11.2798 1.07738 11.1603C2.44229 8.37688 4.70863 6.29363 8.5114 5.33845L8.52819 5.33417C9.49677 5.10001 10.504 5.11901 11.4018 5.42062C12.2638 5.71083 12.8777 6.21193 13.2798 6.77336C13.4492 7.0099 13.6054 7.23076 13.7528 7.43833C14.109 7.94085 14.4083 8.36453 14.6966 8.73597C15.1002 9.25844 15.425 9.60518 15.7462 9.84789C16.044 10.0735 16.3396 10.2122 16.7169 10.3081C17.1228 10.4112 17.6914 10.4825 18.5694 10.4996C18.7623 10.5021 18.9525 10.5294 19.1291 10.5801C19.3056 10.6307 19.465 10.7036 19.5979 10.7946C19.7309 10.8856 19.8348 10.9928 19.9037 11.1101C19.9726 11.2273 20.0051 11.3523 19.9993 11.4778C19.9936 11.6033 19.9496 11.7268 19.87 11.8412C19.7904 11.9556 19.6768 12.0585 19.5357 12.1441C19.3946 12.2298 19.2288 12.2963 19.0479 12.34C18.867 12.3836 18.6746 12.4035 18.4818 12.3985C17.4271 12.3781 16.4907 12.2902 15.6549 12.0779C14.7915 11.8585 14.1105 11.5246 13.5309 11.0852C13.166 10.8088 12.8448 10.4929 12.5456 10.1495L11.7325 12.588Z" fill="white" stroke="#8BC6EC" stroke-opacity="0.42" stroke-width="0.5"/>
<path d="M6.30898 13.4541L8.7286 14.9645L7.61477 17.4092C7.52863 17.5984 7.35414 17.7654 7.11552 17.8871L3.36821 19.7979C3.21725 19.8748 3.04447 19.9317 2.85975 19.9652C2.67503 19.9987 2.48198 20.0081 2.29163 19.9931C2.10127 19.978 1.91734 19.9387 1.75034 19.8774C1.58333 19.8161 1.43652 19.7339 1.31829 19.6357C1.20006 19.5375 1.11272 19.425 1.06126 19.3048C1.00979 19.1846 0.995221 19.059 1.01837 18.9351C1.04151 18.8112 1.10193 18.6916 1.19615 18.5829C1.29038 18.4742 1.41658 18.3787 1.56755 18.3017L4.94845 16.5785L5.96666 14.3414L6.30898 13.4541Z" fill="white" stroke="#8BC6EC" stroke-opacity="0.42" stroke-width="0.5"/>
</svg>
