<svg width="5" height="9" viewBox="0 0 5 9" fill="none" xmlns="http://www.w3.org/2000/svg">
<path d="M3.63209 4.14687L1.75669 3.65313C1.53963 3.59688 1.38855 3.41406 1.38855 3.21094C1.38855 2.95625 1.61777 2.75 1.90082 2.75H3.05211C3.26396 2.75 3.47234 2.80781 3.64598 2.91406C3.75191 2.97813 3.8943 2.9625 3.9846 2.88281L4.58889 2.35156C4.71218 2.24375 4.69482 2.06406 4.55764 1.96875C4.1322 1.66875 3.60084 1.50156 3.05558 1.5V0.75C3.05558 0.6125 2.93055 0.5 2.77774 0.5H2.22207C2.06926 0.5 1.94423 0.6125 1.94423 0.75V1.5H1.90082C0.794677 1.5 -0.0944028 2.35469 0.00804979 3.36875C0.0809821 4.08906 0.692225 4.675 1.46322 4.87813L3.24312 5.34688C3.46018 5.40469 3.61125 5.58594 3.61125 5.78906C3.61125 6.04375 3.38204 6.25 3.09899 6.25H1.9477C1.73585 6.25 1.52747 6.19219 1.35383 6.08594C1.2479 6.02188 1.10551 6.0375 1.01521 6.11719L0.410914 6.64844C0.287624 6.75625 0.304989 6.93594 0.442171 7.03125C0.867609 7.33125 1.39897 7.49844 1.94423 7.5V8.25C1.94423 8.3875 2.06926 8.5 2.22207 8.5H2.77774C2.93055 8.5 3.05558 8.3875 3.05558 8.25V7.49687C3.86478 7.48281 4.62362 7.05 4.89104 6.36094C5.26439 5.39844 4.63752 4.41094 3.63209 4.14687Z" fill="#F2F2F2"/>
</svg>
