<svg width="21" height="19" viewBox="0 0 21 19" fill="none" xmlns="http://www.w3.org/2000/svg">
<path d="M14.6156 12.2755C18.1729 9.15795 19.5872 7.89359 20.5 7.05165V16.625C20.5 17.7519 19.7583 18.5 19.0312 18.5H1.96875C1.24167 18.5 0.5 17.7519 0.5 16.625V7.05607C1.41395 7.89721 2.83145 9.15817 6.38838 12.2754C6.50204 12.3755 6.63581 12.4999 6.78484 12.6386C7.15073 12.979 7.60856 13.405 8.08638 13.7658C8.76015 14.2746 9.60042 14.7595 10.4992 14.755C11.4041 14.7626 12.2548 14.2685 12.9315 13.7562C13.411 13.3932 13.8696 12.9655 14.2293 12.6301C14.3764 12.4928 14.507 12.3711 14.6156 12.2755ZM10.5104 12.1668L10.5 12.1666L10.4896 12.1668C10.3739 12.1692 10.1984 12.1242 9.95827 11.9976C9.7248 11.8744 9.47071 11.696 9.20911 11.4862C8.86004 11.2062 8.54748 10.9144 8.26537 10.6509C8.10736 10.5034 7.9589 10.3648 7.81893 10.2421L7.8188 10.242C2.78009 5.83092 2.05714 5.14837 0.985357 4.13649C0.900475 4.05635 0.813405 3.97415 0.72183 3.88786C0.592903 3.76381 0.5 3.55821 0.5 3.3151V2.375C0.5 1.24805 1.24168 0.5 1.96875 0.5H19.0312C19.7583 0.5 20.5 1.24805 20.5 2.375V3.3151C20.5 3.56229 20.4045 3.76957 20.281 3.88521L20.279 3.88706C20.208 3.95424 20.1397 4.01892 20.0731 4.08206C18.9679 5.12899 18.3124 5.74991 13.1812 10.242L13.1811 10.2421C13.0411 10.3648 12.8926 10.5034 12.7346 10.6509C12.4525 10.9144 12.14 11.2062 11.7909 11.4862C11.5293 11.696 11.2752 11.8744 11.0417 11.9976C10.8016 12.1242 10.6261 12.1692 10.5104 12.1668Z" stroke="#9599E2"/>
</svg>
