<svg width="34" height="23" viewBox="0 0 34 23" fill="none" xmlns="http://www.w3.org/2000/svg">
<path d="M28.3333 19.7143V20.5357C28.3333 21.8967 27.0648 23 25.5 23H2.83333C1.26851 23 0 21.8967 0 20.5357V7.39286C0 6.03185 1.26851 4.92857 2.83333 4.92857H3.77778V15.6071C3.77778 17.8718 5.89617 19.7143 8.5 19.7143H28.3333ZM34 15.6071V2.46429C34 1.10328 32.7315 0 31.1667 0H8.5C6.93517 0 5.66667 1.10328 5.66667 2.46429V15.6071C5.66667 16.9681 6.93517 18.0714 8.5 18.0714H31.1667C32.7315 18.0714 34 16.9681 34 15.6071ZM15.1111 4.92857C15.1111 6.28958 13.8426 7.39286 12.2778 7.39286C10.713 7.39286 9.44444 6.28958 9.44444 4.92857C9.44444 3.56757 10.713 2.46429 12.2778 2.46429C13.8426 2.46429 15.1111 3.56757 15.1111 4.92857ZM9.44444 12.3214L12.7214 9.47133C12.998 9.23075 13.4465 9.23075 13.7231 9.47133L16.0556 11.5L24.0547 4.54276C24.3313 4.30218 24.7798 4.30218 25.0565 4.54276L30.2222 9.03571V14.7857H9.44444V12.3214Z" fill="#F2F2F2"/>
</svg>
