<svg width="49" height="65" viewBox="0 0 49 65" fill="none" xmlns="http://www.w3.org/2000/svg">
<path d="M21.9821 63.2929C3.44148 36.7178 0 33.9904 0 24.2236C0 10.8452 10.969 0 24.5 0C38.031 0 49 10.8452 49 24.2236C49 33.9904 45.5585 36.7178 27.0179 63.2929C25.8012 65.0307 23.1987 65.0306 21.9821 63.2929Z" fill="url(#paint0_linear_169_736)"/>
<path d="M33.2616 15.5128C33.6983 15.5128 34.0556 15.1359 34.0556 14.6752V13.8376C34.0556 13.3769 33.6983 13 33.2616 13H15.794C15.3573 13 15 13.3769 15 13.8376V14.6752C15 15.1359 15.3573 15.5128 15.794 15.5128H16.588V23.7161C15.5856 24.2449 15 24.8783 15 25.5641C15 29.0821 16.717 32.1707 19.3073 33.9663L18.2454 37.6413C17.9328 38.7145 18.697 39.8034 19.7639 39.8034H29.2917C30.3586 39.8034 31.1228 38.7145 30.8102 37.6413L29.7482 33.9663C32.3386 32.1707 34.0556 29.0821 34.0556 25.5641C34.0556 24.8783 33.47 24.2449 32.4676 23.7161V15.5128H33.2616ZM18.9699 16.7692C18.9699 16.5389 19.1486 16.3504 19.3669 16.3504H21.7488C21.9672 16.3504 22.1458 16.5389 22.1458 16.7692V17.6068C22.1458 17.8372 21.9672 18.0256 21.7488 18.0256H19.3669C19.1486 18.0256 18.9699 17.8372 18.9699 17.6068V16.7692ZM24.5278 27.2393C20.7018 27.2393 17.6003 26.4907 17.6003 25.5641C17.6003 24.6375 20.7018 23.8889 24.5278 23.8889C28.3538 23.8889 31.4553 24.6375 31.4553 25.5641C31.4553 26.4907 28.3538 27.2393 24.5278 27.2393Z" fill="white"/>
<defs>
<linearGradient id="paint0_linear_169_736" x1="0" y1="31.7314" x2="49" y2="31.7314" gradientUnits="userSpaceOnUse">
<stop stop-color="#8BC6EC"/>
<stop offset="1" stop-color="#9599E2"/>
</linearGradient>
</defs>
</svg>
