<svg width="30" height="39" viewBox="0 0 30 39" fill="none" xmlns="http://www.w3.org/2000/svg">
<path d="M13.5627 37.7858C2.28284 21.9204 0.189087 20.2922 0.189087 14.4614C0.189087 6.47458 6.86246 0 15.0945 0C23.3266 0 30 6.47458 30 14.4614C30 20.2922 27.9062 21.9204 16.6264 37.7858C15.8861 38.8232 14.3028 38.8231 13.5627 37.7858Z" fill="url(#paint0_linear_169_733)"/>
<path d="M20.408 7.5C20.6737 7.5 20.8911 7.275 20.8911 7V6.5C20.8911 6.225 20.6737 6 20.408 6H9.78102C9.51534 6 9.29797 6.225 9.29797 6.5V7C9.29797 7.275 9.51534 7.5 9.78102 7.5H10.2641V12.3969C9.65422 12.7125 9.29797 13.0906 9.29797 13.5C9.29797 15.6 10.3426 17.4438 11.9185 18.5156L11.2724 20.7094C11.0822 21.35 11.5472 22 12.1963 22H17.9928C18.6419 22 19.1068 21.35 18.9166 20.7094L18.2706 18.5156C19.8465 17.4438 20.8911 15.6 20.8911 13.5C20.8911 13.0906 20.5349 12.7125 19.925 12.3969V7.5H20.408ZM11.7132 8.25C11.7132 8.1125 11.8219 8 11.9547 8H13.4039C13.5367 8 13.6454 8.1125 13.6454 8.25V8.75C13.6454 8.8875 13.5367 9 13.4039 9H11.9547C11.8219 9 11.7132 8.8875 11.7132 8.75V8.25ZM15.0945 14.5C12.7669 14.5 10.88 14.0531 10.88 13.5C10.88 12.9469 12.7669 12.5 15.0945 12.5C17.4222 12.5 19.3091 12.9469 19.3091 13.5C19.3091 14.0531 17.4222 14.5 15.0945 14.5Z" fill="white"/>
<defs>
<linearGradient id="paint0_linear_169_733" x1="15.0945" y1="0" x2="15.0945" y2="38.5638" gradientUnits="userSpaceOnUse">
<stop stop-color="#4298CF"/>
<stop offset="1" stop-color="#0C99F3"/>
</linearGradient>
</defs>
</svg>
